<?xml version="1.0" encoding="UTF-8" standalone="no"?><!DOCTYPE svg PUBLIC "-//W3C//DTD SVG 1.1//EN" "http://www.w3.org/Graphics/SVG/1.1/DTD/svg11.dtd"><svg width="100%" height="100%" viewBox="0 0 1100 417" version="1.1" xmlns="http://www.w3.org/2000/svg" xmlns:xlink="http://www.w3.org/1999/xlink" xml:space="preserve" xmlns:serif="http://www.serif.com/" style="fill-rule:evenodd;clip-rule:evenodd;stroke-linejoin:round;stroke-miterlimit:2;"><path id="XMLID_953_" d="M265.554,254.446c0,9.981 -5.545,18.954 -14.473,23.417l-47.639,23.82c-3.726,1.863 -7.731,2.788 -11.724,2.788c-4.768,0 -9.517,-1.319 -13.748,-3.934c-7.775,-4.805 -12.417,-13.13 -12.417,-22.27l0,-47.64c0,-9.14 4.642,-17.465 12.417,-22.27c7.775,-4.805 17.297,-5.234 25.472,-1.146l47.639,23.82c8.928,4.461 14.473,13.434 14.473,23.415Zm-20,0c0,-2.356 -1.309,-4.474 -3.416,-5.528l-47.64,-23.82c-0.986,-0.493 -1.917,-0.671 -2.749,-0.671c-1.514,0 -2.695,0.59 -3.264,0.941c-0.881,0.545 -2.931,2.147 -2.931,5.257l0,47.64c0,3.11 2.05,4.712 2.931,5.257c0.881,0.544 3.233,1.662 6.013,0.271l47.639,-23.82c2.108,-1.053 3.417,-3.171 3.417,-5.527Zm130,140l-30,0c0,0 -275.361,0.216 -290,0c-21.567,-0.319 -30,-14.59 -30,-28.571l0,-222.858c0,-15.754 13.458,-28.571 30,-28.571l112.604,0c-7.87,-9.516 -12.604,-21.715 -12.604,-35c0,-30.327 24.673,-55 55,-55l100,0c30.327,0 55,24.673 55,55l-0.001,0.25c-0.004,1.283 0.496,2.526 1.408,3.442c0.595,0.596 1.624,1.308 3.15,1.308l30.443,0c30.327,0 55,24.673 55,55c0,28.643 -22.006,52.242 -50,54.775l0,171.654c0,15.754 -13.458,28.571 -30,28.571Zm-200,-315c0,19.299 15.701,35 35,35l47.571,0c3.247,0 6.291,1.576 8.165,4.227c1.874,2.65 2.345,6.046 1.263,9.107c-1.327,3.751 -1.999,7.676 -1.999,11.666c0,19.299 15.701,35 35,35l100,0c19.299,0 35,-15.701 35,-35c0,-19.299 -15.701,-35 -35,-35l-30.442,0c-6.546,0 -12.696,-2.553 -17.316,-7.19c-4.693,-4.708 -7.265,-10.99 -7.242,-17.687l0,-0.123c0,-19.299 -15.701,-35 -35,-35l-100,0c-19.299,0 -35,15.701 -35,35Zm200,295c5.514,0 10,-3.845 10,-8.571l0,-171.429l-85,0c-30.327,0 -55,-24.673 -55,-55c0,-1.675 0.076,-3.342 0.226,-5l-190.226,0c-5.514,0 -10,3.845 -10,8.571l0,222.857c0,4.726 4.486,8.571 10,8.571l320,0l0,0.001Z" style="fill:#fff;fill-rule:nonzero;"/><g><path d="M63.178,205.405c-3.076,0 -5.713,-2.637 -5.713,-5.713l0,-28.129c0,-10.109 8.79,-24.173 20.217,-24.173l47.028,0c3.077,0 5.714,2.637 5.714,5.713c0,3.077 -2.637,5.714 -5.714,5.714l-47.028,0c-3.955,0 -9.229,7.911 -9.229,12.746l0,28.129c0.439,3.076 -2.198,5.713 -5.275,5.713Z" style="fill:#fff;fill-rule:nonzero;"/><path d="M152.839,158.817l-5.714,0c-3.076,0 -5.713,-2.637 -5.713,-5.714c0,-3.076 2.637,-5.713 5.713,-5.713l5.714,0c3.076,0 5.713,2.637 5.713,5.713c-0.439,3.077 -2.637,5.714 -5.713,5.714Z" style="fill:#fff;fill-rule:nonzero;"/></g><g transform="matrix(8.40206,0,0,8.40206,-3526.91,-1615.38)"><text x="475.422px" y="220.119px" style="font-family:'Calibri-Bold', 'Calibri', sans-serif;font-weight:700;font-size:12px;fill:#fff;stroke:#fff;stroke-width:0.2px;">LE<tspan x="486.232px 491.904px " y="220.119px 220.119px ">S </tspan>FILMS</text><text x="475.422px" y="234.768px" style="font-family:'Calibri-Bold', 'Calibri', sans-serif;font-weight:700;font-size:12px;fill:#fff;stroke:#fff;stroke-width:0.2px;">DE PLEIN AIR</text></g></svg>